<svg xmlns="http://www.w3.org/2000/svg" viewBox="0 0 32 32" width="32" height="32">
  <rect width="32" height="32" rx="8" fill="#09090b"/>
  <path d="M12 8H9a2 2 0 0 0-2 2v4a2 2 0 0 1-2 2 2 2 0 0 1 2 2v4a2 2 0 0 0 2 2h3" stroke="#ff6b00" stroke-width="2.5" stroke-linecap="round" stroke-linejoin="round" fill="none"/>
  <path d="M20 8h3a2 2 0 0 1 2 2v4a2 2 0 0 0 2 2 2 2 0 0 0-2 2v4a2 2 0 0 1-2 2h-3" stroke="#ff6b00" stroke-width="2.5" stroke-linecap="round" stroke-linejoin="round" fill="none"/>
  <circle cx="12.5" cy="15" r="1.5" fill="#ffffff"/>
  <circle cx="19.5" cy="15" r="1.5" fill="#ffffff"/>
  <path d="M14 18.5a2 2 0 0 0 4 0" stroke="#ffffff" stroke-width="1.5" stroke-linecap="round" fill="none"/>
</svg>